<?xml version="1.0" encoding="utf-8"?>
<!DOCTYPE svg PUBLIC "-//W3C//DTD SVG 1.1//EN" "http://www.w3.org/Graphics/SVG/1.1/DTD/svg11.dtd">
<svg
    version="1.1"
    id="Layer_1" xmlns="http://www.w3.org/2000/svg" xmlns:xlink="http://www.w3.org/1999/xlink"
    x="0px"
    y="0px"
    width="1024px"
    height="1024px"
    viewBox="0 0 1024 1024"
    enable-background="new 0 0 1024 1024"
    xml:space="preserve">
  <path
      id="hokkaido"
      class="hokkaido"
      stroke="#FFFFFF"
      stroke-width="1.25"
      d="M636.61,226.503l-0.65,3.26l-1.949,0.652v-5.869l3.899-1.305L636.61,226.503z M655.454,240.197l-0.649-7.173l-2.599-4.565l-3.249-0.652l-1.3-3.26l-2.6-0.652l-1.3-3.261l2.6-5.217l-1.3-7.173l1.3-1.956l5.849-1.304l3.898-5.869l1.949,2.608l1.3-0.652l2.6-5.869l3.898-3.26l-6.498-9.13l0.65-4.564l4.549-1.304l8.447,6.521l7.147-1.956v1.956l4.55,1.956l3.249-1.956l3.898-5.869l-3.898-16.302l1.949-3.26l4.549-1.957l2.6-3.913l-0.65-14.998l2.6-5.217l0.649-6.521l-1.949-11.738l-5.199-12.39l1.95-5.869l-0.65-3.913l1.3,1.957l3.25-0.652l3.898-4.564l16.896,17.606l5.198,8.478l10.397,11.085l18.846,12.39l18.844,3.261l0.65,2.608l3.249,3.261h12.347l14.296-17.606l1.3,3.26l-6.498,14.999v6.521l1.949,3.913l6.498,1.956l-1.3,1.304l0.65-1.957h-3.898l3.248,7.825l3.899,4.565l2.6,0.651l4.549-5.217l4.548-0.651l-6.497,5.217l-1.3,4.564l-11.047,1.956l-1.3,3.913l-2.6,3.26h-3.25l-1.3-1.304l0.65-1.305l-1.949-0.652l-1.949,3.913l1.949,1.304l-9.748,0.652l-5.197-1.957l-9.748,5.217l-9.098,10.434l-5.848,9.129l-1.95,5.869l0.65,9.781l-1.3,5.217l-9.099-7.173l-14.945-5.869l-18.195-11.085l-8.447-1.304l1.949-1.957l-9.748,5.217l-10.396,10.434l-1.95-1.957h2.6l-3.248-0.652l-1.3-3.913l-5.199-5.217l-7.147,0.652l-3.25,4.564l-1.949,6.521l0.65,2.608l7.797,5.217h6.499l5.848,7.825l5.849,1.956l1.3,1.957l-3.898,3.26l-2.6,1.304l-5.849-2.608L673,242.806v-2.608l-1.949-0.652l-1.3,3.26l-4.55,2.608v5.869l-5.197,2.608l-1.95,3.261l-4.549-1.956l-1.949-3.913l0.65-5.869L655.454,240.197z M680.147,101.301l1.3-1.957l2.6,1.304l1.3,3.261l-2.6,1.956l-2.6-1.956V101.301z M676.249,92.823v-1.304l1.3,1.304l-0.649,6.521l-1.95-6.521H676.249z M873.796,81.085l-1.3-2.608h-1.3l-1.3,2.608l1.3,3.913l-0.649,1.957l-3.25,1.304l-1.299,4.564l-4.549-0.652l0.65,4.564l-6.499,5.869v2.608h-3.898v1.305l2.6,1.304v2.608l-1.95,1.957l-2.599-0.652v3.26l-1.95-1.957l0.65,3.261l-1.95,4.564l2.6,0.652l3.249-5.869l3.249-0.652l3.249-6.521l6.499-5.869l1.3-6.521l3.248,1.956l3.899-1.304l9.747-11.085l8.448-5.869l5.849-1.304l0.649-1.957l-1.949-2.608l1.949-2.608L895.24,70l-3.898,1.304l-7.799,11.738l-7.147,1.304L873.796,81.085z M822.46,134.558l3.249-3.913l5.198-1.304l3.249-4.565l1.95,0.652l1.949-3.913l-6.499,1.956l-5.197-3.26l-1.95,1.304l-2.6,6.521l-5.848,9.781v1.957l-9.099,9.781l1.3,4.564l3.25-0.652v2.608l0.649-8.477l5.198-3.261l0.649-3.26h1.95l0.649-4.565L822.46,134.558z M843.254,151.512l7.799-6.521l-3.25-1.305l-2.6,1.957l0.65,0.652l-4.549,1.305v2.608l1.299-0.652L843.254,151.512z M828.958,162.598l2.599-3.261l-4.548,1.305L828.958,162.598z M823.109,165.206l1.3-1.956l-2.6,0.652L823.109,165.206z" />
  <path
      id="aomori"
      class="tohoku"
      stroke="#FFFFFF"
      stroke-width="1.25"
      d="M650.906,296.93v-5.217l-1.949-1.957l3.898-5.869h3.898l3.899-2.608l1.949-10.434l-2.599-2.608l1.949-0.652l0.649-4.564l3.898,2.608l2.6-1.957l2.6,1.957l1.3,9.781l1.949,4.564l3.898-2.608l-0.648-2.608l1.299-2.608l7.148,5.869l1.949-1.957l2.599-10.433l-2.599-4.565l-3.898,3.913l-9.098,1.956l3.898-16.302l11.047,7.173l5.849-3.261l-1.3,20.215l1.3,9.129l2.6,7.173l2.6-0.652l3.248,3.913l-3.898,4.565l-3.249-1.305l-2.6,1.957l-1.3-1.957l-8.447,6.521l-2.6-0.652l0.65-7.173h-3.25v-3.261l-6.497,4.564l-1.95-1.304l-1.949,1.304l-4.55-3.26l-1.948,1.957l-7.799-1.305l-1.949,2.608L650.906,296.93z" />
  <path
      id="iwate"
      class="tohoku"
      stroke="#FFFFFF"
      stroke-width="1.25"
      d="M706.141,354.314l-4.548-0.652l-1.3,9.129l-3.899-1.957l-2.6,3.261l-3.898-2.608l1.299-2.608l-5.198,0.652l-6.498-3.26l0.649-3.913l-1.948-3.261l1.948-1.956l-5.198-8.478l1.95-7.173l2.599-3.913l-1.299-3.26l1.948-2.608l-1.948-2.608l3.248-0.652l-1.3-11.738l2.6-3.26l2.6,0.652l8.447-6.521l1.3,1.957l2.6-1.957l3.249,1.305l3.898-4.565l5.199,7.173l-1.3,3.26l3.249,1.956l-1.3,2.608l3.899,3.261l1.949,9.781l-1.299,6.521l1.948-2.608l0.65,3.261l1.3,0.652l-3.898,3.26l1.299,1.305l1.949-1.957v2.608h-2.6v3.26l-1.948,0.652l3.248-0.652l-3.248,1.957l1.3,1.304l-1.3,1.304l2.599-0.652l-3.898,4.565l2.6,1.304h-3.25l1.95,1.956h-1.95l1.3,1.304l-3.898,0.652l-0.65-1.957l1.3,3.261h-1.3v1.956l-1.3-2.608L706.141,354.314z" />
  <path
      id="miyagi"
      class="tohoku"
      stroke="#FFFFFF"
      stroke-width="1.25"
      d="M685.996,399.309h-2.599v3.913h-2.6l0.649,1.304l-3.248-1.304l-0.65-3.913H671.7l-2.6-2.608h-3.899l-0.648-3.26l4.548-1.305l1.95-3.912l-0.65-3.913l4.549-7.825l-2.599-7.173h1.949l1.3-5.216l-3.249-5.217l2.599,0.652l4.549-3.26l6.498,3.26l5.198-0.652l-1.299,2.608l3.898,2.608l2.6-3.261l3.899,1.957l1.3-9.129l4.548,0.652l1.95,4.565l-3.25-1.957l0.65,3.261l-2.599,2.608l1.948,3.26l-1.299-1.304l-2.6,1.957l2.6,1.304l-1.949,3.912h2.599v2.608l-1.949-1.304l1.3,2.608l-1.949,0.652l0.649,1.956l1.949-0.652l-1.299,1.304l1.299,1.304v2.609l-2.599-1.305l0.649-1.956l-1.949,0.652l1.3-1.304l-0.65-1.304l-11.047,1.957l-1.949,1.956l2.599,1.305l-3.249,0.651l1.95,0.652l-3.899,6.521L685.996,399.309z M692.494,380.398l0.65,1.304h-1.3L692.494,380.398z" />
  <path
      id="akita"
      class="tohoku"
      stroke="#FFFFFF"
      stroke-width="1.25"
      d="M679.498,356.271l-4.549,3.26l-2.599-0.652l-2.6-0.652l-1.3-3.26l-9.098-1.957l-2.6-3.26l-6.498,0.652l1.3-6.521l3.249-5.869l0.649-14.346l-3.898-5.217l-5.198,1.957l-1.95-5.869l3.899,1.957l3.899-5.217l1.948-5.869v-5.217l-3.248-3.26l2.599,0.652l1.949-2.608l7.799,1.305l1.948-1.957l4.55,3.26l1.949-1.304l1.95,1.304l6.497-4.564v3.261h3.25l-0.65,7.173l-2.6,3.26l1.3,11.738l-3.248,0.652l1.948,2.608l-1.948,2.608l1.299,3.26l-2.599,3.913l-1.95,7.173l5.198,8.478l-1.948,1.956l1.948,3.261L679.498,356.271z" />
  <path
      id="yamagata"
      class="tohoku"
      stroke="#FFFFFF"
      stroke-width="1.25"
      d="M650.256,350.401l6.498-0.652l2.6,3.26l9.098,1.957l1.3,3.26l2.6,0.652 l3.249,5.217l-1.3,5.216h-1.949l2.599,7.173l-4.549,7.825l0.65,3.913l-1.95,3.912l-4.548,1.305l0.648,3.26l-0.648,5.869 l1.299,0.652l-1.949,2.608l-3.898,0.652l-1.95-1.305l-2.6,0.652l-1.3-2.608l-3.898,0.652l-4.549-1.304l-1.949-3.261l1.949-5.217 v-5.217l5.199-1.956l1.3-2.608l-5.849-3.913v-4.565l-5.199-1.956l8.448-14.998L650.256,350.401z" />
  <path
      id="fukushima"
      class="tohoku"
      stroke="#FFFFFF"
      stroke-width="1.25"
      d="M682.747,441.695l-6.498-3.26v2.608l-3.898,3.913l-6.499-5.869l-0.65-3.913l-3.898-2.608l-7.798-1.956l-16.245,10.434l-5.199-1.304l0.65-9.129l-3.25-3.261l2.6-3.913l-1.3-2.608l0.65-1.956l5.849-0.652l0.65-1.956h5.197l-1.3-5.869l5.85-6.521l-1.95-1.304l4.549,1.304l3.898-0.652l1.3,2.608l2.6-0.652l1.95,1.305l3.898-0.652l1.949-2.608l-1.299-0.652l0.648-5.869h3.899l2.6,2.608h5.849l0.65,3.913l3.248,1.304l-0.649-1.304h2.6v-3.913h2.599l3.899,9.129v17.606l-1.3,10.434L682.747,441.695z" />
  <path
      id="ibaraki"
      class="kanto"
      stroke="#FFFFFF"
      stroke-width="1.25"
      d="M650.906,473.648L650.906,473.648l-1.949,0.652l-1.3-4.565l4.549-1.956 l0.649-2.608h1.949l1.949-3.261l7.148-1.304l1.949-4.564l-1.299-6.521l1.948-1.304l-0.649-1.957v-7.173l6.499,5.869l3.898-3.913 v-2.608l6.498,3.26l-5.198,15.65l0.65,3.913l-1.95,4.564l1.3,6.521l3.249,5.869l-1.3,1.304l1.3,1.957l0.649-2.608l5.199,7.825 l-11.697-7.825v1.957l-11.696,2.608l-7.148-3.261L650.906,473.648z" />
  <path
      id="tochigi"
      class="kanto"
      stroke="#FFFFFF"
      stroke-width="1.25"
      d="M647.657,469.735l-0.65-0.652l-1.3-2.608l-5.848,0.652l-3.249-4.564l3.897-8.478l-5.197-1.956l0.649-5.869l1.95-1.956L635.96,443l1.3-1.956l16.245-10.434l7.798,1.956l3.898,2.608l0.65,3.913v7.173l0.649,1.957l-1.948,1.304l1.299,6.521l-1.949,4.564l-7.148,1.304l-1.949,3.261h-1.949l-0.649,2.608L647.657,469.735z" />
  <path
      id="gunma"
      class="kanto"
      stroke="#FFFFFF"
      stroke-width="1.25"
      d="M647.007,469.083l-6.499,1.304l-3.897-2.608l-7.149-1.304l-3.248,6.521l-10.398,5.869l-2.598-1.304v-3.913l-1.95-1.956l1.95-0.652l-1.3-3.913l1.949-1.304l-0.649-3.913h-5.85l-1.949-3.26l0.649-4.565l3.25-2.608l-0.65-1.304l5.849-1.956l7.798-3.913v-1.956l1.95-0.652l-0.65-3.26l2.6-0.652l1.3-2.608l4.548,4.565l5.199,1.304l-1.3,1.956l1.95,1.304l-1.95,1.956l-0.649,5.869l5.197,1.956l-3.897,8.478l3.249,4.564l5.848-0.652L647.007,469.083z" />
  <path
      it="saitama"
      class="kanto"
      stroke="#FFFFFF"
      stroke-width="1.25"
      d="M647.007,469.083l0.65,0.652l1.3,4.565l1.949-0.652l0,0l3.898,8.477v4.565 l-3.898-1.304l-1.3,1.304l-2.6-0.652l-3.899,1.957v-2.608l-4.548,1.956l-3.249-2.608l-9.748-2.608l-1.949,1.957l-7.148-1.957 l-0.65-3.26l10.398-5.869l3.248-6.521l7.149,1.304l3.897,2.608L647.007,469.083z" />
  <path
      id="chiba"
      class="kanto"
      stroke="#FFFFFF"
      stroke-width="1.25"
      d="M654.154,492.559l1.3-2.608l-0.649-3.26v-4.565l-3.898-8.477l5.198,6.521 l7.148,3.261l11.696-2.608v-1.957l11.697,7.825v2.608h-6.499L673,496.471l-1.3,14.346l-8.447,2.608l-7.799,9.129l-4.548-2.607 l3.248-1.305l-1.299-1.956l0.649-1.956l-0.649-3.261l1.299-3.261l-2.599-2.608l1.949-2.608l1.949,0.652v-2.608l3.899-1.957 l3.249-3.913l-4.549-4.564l-3.249,2.608L654.154,492.559z" />
  <path
      id="tokyo"
      class="kanto"
      stroke="#FFFFFF"
      stroke-width="1.25"
      d="M745.78,834.91l1.3,1.956h-1.949L745.78,834.91z M655.454,594.938v3.261 l-3.248-4.564L655.454,594.938z M645.707,555.812l-1.3,1.304l-1.949-0.652l1.3-1.956L645.707,555.812z M630.761,549.943 l1.3,1.304l-1.3,0.652V549.943z M635.311,546.031l-1.3-1.305l1.3-2.608V546.031z M637.91,531.032v-3.913l2.598,0.652v3.913 L637.91,531.032z M654.805,486.69l0.649,3.26l-1.3,2.608l-3.898-0.652l1.3,2.608l-2.599,0.652h2.599v1.957l-9.098-4.565 l-1.95,1.304l1.95,1.304h-1.3v3.261l-2.599-3.261l-9.099-3.913l-3.248-1.956l-2.6-5.217l1.949-1.957l9.748,2.608l3.249,2.608 l4.548-1.956v2.608l3.899-1.957l2.6,0.652l1.3-1.304L654.805,486.69z" />
  <path
      id="kanagawa"
      class="kanto"
      stroke="#FFFFFF"
      stroke-width="1.25"
      d="M629.461,491.254l9.099,3.913l2.599,3.261v-3.261h1.3l-1.95-1.304l1.95-1.304 l9.098,4.565l-2.599,2.608l-2.6-0.652l1.949,2.608h-1.949v4.565l3.898,1.956l-2.599,2.608l0.649,1.956h-2.6l0.65-3.26 l-1.95-2.608l-4.548-1.304l-7.148,1.957l-2.6,1.956l0.649,3.913h-1.3l-3.898-2.608v-8.477h-2.599l5.848-5.217L629.461,491.254z" />
  <path
      id="nigata"
      class="chubu"
      stroke="#FFFFFF"
      stroke-width="1.25"
      d="M584.624,447.564l-1.95-7.173l-2.6-1.956l9.099-3.261l5.848-4.564h4.55l9.747-7.825l6.497-9.782l3.25-9.129l12.347-7.825l0.649,1.304l-0.649-0.652l3.899-4.565l5.848-18.259l5.199,1.956v4.565l5.849,3.913l-1.3,2.608l-5.199,1.956v5.217l-1.949,5.217l1.949,3.261l1.95,1.304l-5.85,6.521l1.3,5.869h-5.197l-0.65,1.956l-5.849,0.652l-0.65,1.956l1.3,2.608l-2.6,3.913l3.25,3.261l-0.65,9.129l-4.548-4.565l-1.3,2.608l-2.6,0.652l0.65,3.26l-1.95,0.652v1.956l-7.798,3.913v-4.565l-3.249-2.608v-3.261l-1.949-1.304l-4.55,1.304l-3.248,3.261v3.26l-2.6-1.304l-5.199,2.608l-1.299-0.652v-3.261l-4.549-0.652V443L584.624,447.564z M603.469,403.874l-5.198,0.652l4.548-5.869l-1.299-1.957l-1.949,1.304v-3.913l2.6-5.217l5.848-5.868l-2.6,10.434l4.549,0.652l-1.949,5.869L603.469,403.874z" />
  <path
      id="toyama"
      class="chubu"
      stroke="#FFFFFF"
      stroke-width="1.25"
      d="M578.775,462.562l-6.498-2.608l-2.6,1.304v-1.304l-3.249,1.304l-1.95-1.304 l-5.848,7.173l-0.65-2.608l-2.599-1.304l-2.6,3.261l-0.649-5.217l1.299-5.217l-0.649-2.608l1.3-1.957l-1.3-2.608l1.949-1.304 l1.3-6.521l5.199-1.304l-1.95,3.912l7.798,4.565l5.199-2.608l1.3-5.217l6.497-1.956l2.6,1.956l1.95,7.173l-0.65,7.173 l-1.949,0.652l0.649,1.957L578.775,462.562z" />
  <path
      id="ishikawa"
      class="chubu"
      stroke="#FFFFFF"
      stroke-width="1.25"
      d="M558.631,433.218l-1.95-1.957h4.55L558.631,433.218z M552.782,466.475l1.949,1.956 l-3.248,6.521l-3.25,0.652l-3.249-3.261l-6.498-0.652l-3.899-5.217l9.747-9.782l7.149-11.737l0.649-7.173l-1.3-2.608v-3.26 l-1.949-0.652l3.249-8.477l16.245-6.521l2.6,0.652l0.649,2.608l-3.898,0.652l-0.65,5.869l-2.6-0.652l-4.548,5.217l-1.3-2.608 l-1.95,0.652l-1.299,5.869l3.898,1.304l1.95-2.608v6.521l-5.199,1.304l-1.3,6.521l-1.949,1.304l1.3,2.608l-1.3,1.957l0.649,2.608 l-1.299,5.217L552.782,466.475z" />
  <path
      id="fukui"
      class="chubu"
      stroke="#FFFFFF"
      stroke-width="1.25"
      d="M534.587,466.475l3.899,5.217l6.498,0.652l3.249,3.261l3.25-0.652l-1.3,3.913 l3.898,5.217l-1.949,2.608l-8.448,0.652l-0.649,1.304l-3.899-1.956l-3.249,5.869l-4.549-1.956l0.65,5.217l-1.95-0.652v1.957 l-3.898,1.956l-1.949-1.304l-1.95,4.565l-1.949-0.652l-1.949,2.608l-7.798-1.304l-1.95-3.26l0.65-3.913l1.3,2.608l4.548-1.957 l-2.599,1.957l4.549,0.652l1.3-1.956l-1.3,0.652v-1.956l3.898,1.304l-1.3-1.304l1.95-1.304l-1.3-1.957l5.199,0.652l-0.65-3.913 l1.95-1.304l0.648,3.26l1.3,0.652l0.65-4.565l-4.549-8.477l5.849-8.477v-2.608L534.587,466.475z" />
  <path
      id="yamanashi"
      class="chubu"
      stroke="#FFFFFF"
      stroke-width="1.25"
      d="M599.57,493.211l-1.3-3.261l1.949-1.304l-1.949-1.956l6.497-7.173l3.25,3.261 l3.899-1.304l2.599,1.957l1.949-1.305l7.148,1.957l2.6,5.217l3.248,1.956l-0.649,5.869l-5.848,5.217l-7.799,1.956l-3.248-3.26 l-2.6,5.217l0.649,4.564l-3.249,1.304l-2.6-5.869l-3.248-0.652l0.649-7.173L599.57,493.211z" />
  <path
      id="nagano"
      class="chubu"
      stroke="#FFFFFF"
      stroke-width="1.25"
      d="M614.516,448.216l-5.849,1.956l0.65,1.304l-3.25,2.608l-0.649,4.565l1.949,3.26h5.85l0.649,3.913l-1.949,1.304l1.3,3.913l-1.95,0.652l1.95,1.956v3.913l2.598,1.304l0.65,3.26l-1.949,1.305l-2.599-1.957l-3.899,1.304l-3.25-3.261l-6.497,7.173l1.949,1.956l-1.949,1.304l1.3,3.261l-2.6,3.26v7.825l-9.747,6.521l-5.199-1.304l-3.249,1.957l-0.65-3.913l1.3-1.957l-1.3-2.608h1.949l-1.299-1.956l1.299-2.608l-3.897-3.913l1.299-1.957l-3.249-4.564l-3.899-1.957l1.3-3.26h3.25l3.898-4.564l0.649-2.608l-1.949-2.608l3.249-6.521l-1.949-3.913l3.898-5.217l-0.649-1.957l1.949-0.652l0.65-7.173l3.249-4.565v-1.956l4.549,0.652v3.261l1.299,0.652L598.92,443l2.6,1.304v-3.26l3.248-3.261l4.55-1.304l1.949,1.304v3.261l3.249,2.608V448.216z" />
  <path
      id="gifu"
      class="chubu"
      stroke="#FFFFFF"
      stroke-width="1.25"
      d="M578.775,462.562l1.949,3.913l-3.249,6.521l1.949,2.608l-0.649,2.608l-3.898,4.564 h-3.25l-1.3,3.26l3.899,1.957l3.249,4.564l-1.299,1.957l3.897,3.913l-1.299,2.608l1.299,1.956h-1.949l1.3,2.608l-1.3,1.957 l-4.548,2.608l-3.899-2.608l-4.549,1.304l-3.249-1.304l-3.899-5.217l-6.497,1.956l-2.6,5.217l-0.65,3.913l-4.549-4.564 l-3.899,1.304l-1.299-0.652l2.599-6.521l-0.649-1.956l-1.949-4.565h-1.949l-0.65-3.913l3.249-5.869l3.899,1.956l0.649-1.304 l8.448-0.652l1.949-2.608l-3.898-5.217l1.3-3.913l3.248-6.521l-1.949-1.956l2.6-3.261l2.599,1.304l0.65,2.608l5.848-7.173 l1.95,1.304l3.249-1.304v1.304l2.6-1.304L578.775,462.562z" />
  <path
      id="shizuoka"
      class="chubu"
      stroke="#FFFFFF"
      stroke-width="1.25"
      d="M622.964,502.34h2.599v8.477l3.898,2.608l-1.299,3.261l2.599,3.912v2.608 l-4.548,5.869l-0.65,3.912l-4.549,2.609l-3.899-3.913l1.95-9.13l-1.3-2.607l0.649-1.957l3.899-0.652l-6.499-3.912l-4.548,1.305 l-2.6,3.26l1.3,1.957l-5.849,2.607l-1.3,5.869l-3.898,4.564l1.3,2.609l-8.448-2.609l-16.245-0.652v-5.217l5.198-3.26 l6.499-13.042l9.747-6.521v-7.825l2.6-3.26l1.949,5.217l-0.649,7.173l3.248,0.652l2.6,5.869l3.249-1.304l-0.649-4.564l2.6-5.217 l3.248,3.26L622.964,502.34z" />
  <path
      id="aichi"
      class="chubu"
      stroke="#FFFFFF"
      stroke-width="1.25"
      d="M575.526,532.336l-15.596,3.913l1.3-3.261l1.949,1.305l5.198-3.912l1.3,1.955 l1.3-1.955l-0.65-1.957l-3.898-1.956l-1.3,2.608l-5.198-0.652l-2.6-1.956l1.3-5.217l-2.6,7.173l2.6,3.261h-1.95l-2.599-2.608 l0.649-3.261l-1.3-1.956v-3.261l2.6-4.564l-4.548,2.608l-3.25-5.217l0.65-3.913l2.6-5.217l6.497-1.956l3.899,5.217l3.249,1.304 l4.549-1.304l3.899,2.608l4.548-2.608l0.65,3.913l3.249-1.957l5.199,1.304l-6.499,13.042l-5.198,3.26V532.336z" />
  <path
      id="mie"
      class="kansai"
      stroke="#FFFFFF"
      stroke-width="1.25"
      d="M525.49,570.811l-3.25-1.957l-1.949-3.912h0.649v-1.956h1.3l3.25-1.957v-1.956 l3.248-0.652l0.65-1.956l-0.65-4.564l1.3-2.608l-1.3-1.956l1.3-0.652l-1.949-3.261l5.198-3.912l-5.849-3.261l0.65-2.608 l-1.299-0.652l1.948-0.652l-1.3-2.607l-0.648-2.609l1.948-0.651l0.65-3.261l4.549,1.957l3.899-1.957l2.599-6.521l-0.65-6.521 l3.899-1.304l4.549,4.564l3.25,5.217l-3.899,0.652l0.649,2.608l-4.549,7.825l-0.649,5.217l10.396,4.564l1.3,3.26l1.949-0.651 l-0.649,2.608h-3.249l3.249,0.652v3.26l-2.6,0.652l1.3-1.305l-1.949-1.304l-0.649,1.304l-3.899,0.652l1.95-2.607h-2.6l-1.95,3.26 v-1.305l-1.949,1.957l-1.3-1.305v1.957l-1.3-1.305l-4.548,2.608l-1.95,1.305l0.65,3.26l-1.3-0.651l0.649-1.305l-2.599,1.956 l2.599,2.608h-1.3l1.3,1.956l-1.949-1.304l0.649,1.956l-4.549,2.608L525.49,570.811z" />
  <path
      id="shiga"
      class="kansai"
      stroke="#FFFFFF"
      stroke-width="1.25"
      d="M535.887,492.559l0.65,3.913h1.949l1.949,4.565l0.649,1.956l-2.599,6.521 l1.299,0.652l0.65,6.521l-2.599,6.521l-3.899,1.957l-4.549-1.957l-0.65,3.261l-1.948,0.651l-2.6-3.912h-2.6l-1.95-6.521 l1.95-9.129l-3.249-3.261l1.949-2.608l1.949,0.652l1.95-4.565l1.949,1.304l3.898-1.956v-1.957l1.95,0.652l-0.65-5.217 L535.887,492.559z" />
  <path
      id="kyoto"
      class="kansai"
      stroke="#FFFFFF"
      stroke-width="1.25"
      d="M517.042,527.771l-1.95-5.217l-2.599-0.651l0.65-1.956l-2.6,1.956l-5.199-5.217l0.65-3.261l-6.498-1.304l-1.3-4.564l-3.25,1.304l-4.549-3.261l0.65-3.913h3.899v-3.913l-0.65-1.304l-3.249,0.652l-2.599-3.261l0.649-2.608l1.3,1.957l-0.65-1.304l11.048-5.217l2.599,4.564l-5.198,4.565l1.95,0.652l1.299-2.608v2.608l2.599,1.304l-0.649,2.608l1.299-1.956l1.3,0.652l-1.3-3.26l3.899-1.957l0.65,1.957l-0.65,3.913l1.95,3.26l7.798,1.304l3.249,3.261l-1.95,9.129l1.95,6.521h2.6l2.6,3.912l0.648,2.609l-1.299,1.304l-2.6-1.956l-2.6,1.956L517.042,527.771z" />
  <path
      id="osaka"
      class="kansai"
      stroke="#FFFFFF"
      stroke-width="1.25"
      d="M505.345,516.687l5.199,5.217l2.6-1.956l-0.65,1.956l2.599,0.651l1.95,5.217 l-3.25,7.174l1.3,5.869l-1.3,3.26l-16.895,3.912l-1.95-1.955l4.549-0.652l4.548-4.564l1.95-5.869l1.3,1.304l-1.3-5.217 l1.95-1.304l-1.3-7.174l1.3-0.651l-3.899-1.956l-0.649-2.609L505.345,516.687z" />
  <path
      id="hyogo"
      class="kansai"
      stroke="#FFFFFF"
      stroke-width="1.25"
      d="M487.8,549.291l-5.199,1.956v-3.261l-1.95,0.652v-1.956l11.697-12.39l0.65,1.305 l-4.548,6.521l1.949,5.868L487.8,549.291z M469.604,529.076l0.65-1.957l-2.6-3.912l1.3-1.956l-0.65-4.564l5.199-5.217 l-0.65-3.913l3.898-1.304v-2.608l-4.548-11.086l5.848-1.956l11.047,0.652l-0.649,2.608l2.599,3.261l3.249-0.652l0.65,1.304v3.913 h-3.899l-0.65,3.913l4.549,3.261l3.25-1.304l1.3,4.564l6.498,1.304l-0.65,3.261l-1.949,0.651l0.649,2.609l3.899,1.956l-1.3,0.651 l1.3,7.174l-1.95,1.304l-3.899-1.304l-8.448,3.912l-9.747-6.521l-9.097,0.652v-2.607l-1.95,3.26l-1.95-1.305L469.604,529.076z" />
  <path
      id="nara"
      class="kansai"
      stroke="#FFFFFF"
      stroke-width="1.25"
      d="M525.49,559.072l-3.25,1.956v1.957h-1.3v1.956h-0.649l-8.447-1.305l1.3-3.912 l-3.25-4.564l3.898-4.564l2.6-0.652l-2.6-5.869l1.3-3.26l-1.3-5.869l3.25-7.174l3.898,3.261l2.6-1.956l2.6,1.956l1.299-1.304 l1.3,2.607l-1.948,0.652l1.299,0.652l-0.65,2.608l5.849,3.261l-5.198,3.912l1.949,3.261l-1.3,0.652l1.3,1.956l-1.3,2.608 l0.65,4.564l-0.65,1.956L525.49,559.072z" />
  <path
      id="wakayama"
      class="kansai"
      stroke="#FFFFFF"
      stroke-width="1.25"
      d="M520.291,564.941l1.949,3.912l3.25,1.957l-2.6,3.26l0.649,2.608l-5.198,3.261 l-0.65,2.608h-1.3l0.65-1.956l-11.047-3.261l-3.25-4.564l1.95-1.956l-5.198-2.608l-3.25-4.565h-2.6l1.95-3.26l-1.95-0.652 l3.899-1.956l-3.25-1.956l2.6-1.305l-0.65-1.304h2.6l-5.199-5.218l1.3-1.955l1.95,1.955l16.895-3.912l2.6,5.869l-2.6,0.652 l-3.898,4.564l3.25,4.564l-1.3,3.912L520.291,564.941z M525.49,559.072v1.956l-3.25,1.957v-1.957L525.49,559.072z" />
  <path
      id="tottori"
      class="chugoku"
      stroke="#FFFFFF"
      stroke-width="1.25"
      d="M435.164,514.078l-4.549-1.305l2.599-3.912l-1.3-1.957l5.199-1.304l0.65-5.869 l-3.899-5.217l1.3-0.652l1.299,2.608l3.899,1.304l5.198-2.608l7.148,1.304l13.646-0.652l5.849-3.261l4.548,11.086v2.608 l-3.898,1.304l-7.798,2.608l-0.65-3.913l-4.548-1.957l0.65-1.304l-6.499,3.913l-2.599-3.26l-4.549-1.304l-1.95,3.913l-1.3,0.652 l0.65,1.957h-4.548l0.65,2.608l-4.549,0.652L435.164,514.078z" />
  <path
      id="shimane"
      class="chugoku"
      stroke="#FFFFFF"
      stroke-width="1.25"
      d="M428.666,470.388l2.599-0.652l-1.949,2.608l-1.949-1.304l0.65,2.608l-1.3-1.956 L428.666,470.388z M431.915,471.692l-1.299,1.956v-2.608l1.299-0.652l1.3,1.956L431.915,471.692z M434.514,464.519l3.249-3.26 l3.25,3.26l-0.65,2.608h-1.95l1.3,1.304l-3.25,0.652L434.514,464.519z M381.878,526.468l5.198-1.304l9.748-9.13l6.499-3.913 l3.898-5.217l7.148-3.26l1.949-3.913l-1.299-2.608l11.047-2.608l3.899-3.261l1.949,1.957l5.199-0.652l-1.949,1.304l-1.3,0.652 l3.899,5.217l-0.65,5.869l-5.199,1.304l1.3,1.957l-2.599,3.912l-8.448-1.304l-4.549,5.217l-3.899,1.956l1.95,3.261l-5.199,1.304 l-3.249-1.304l-1.299,1.956l-5.199-1.305l-3.899,3.261l0.649,1.304l-1.299,3.913l-3.249,3.261l1.3,1.305l-2.6,1.304l0.65,2.608 l-1.949,2.608l-1.3-1.304l-3.899,1.304l-1.299-2.608l1.299-3.261h-3.249l-1.3-2.608l2.599-3.26L381.878,526.468z" />
  <path
      id="okayama"
      class="chugoku"
      stroke="#FFFFFF"
      stroke-width="1.25"
      d="M472.854,507.557l0.65,3.913l-5.199,5.217l0.65,4.564l-1.3,1.956l2.6,3.912 l-0.65,1.957l-4.549-1.305l1.95,1.957l-3.898,4.564l-5.849-0.652l3.25,0.652l-1.95,2.608l-1.3-0.652l-0.65,3.261l-3.898-1.305 l-1.3,1.957l-1.3-3.913v1.956l-2.599-2.607l-2.6,2.607l-3.249-1.956l1.3,2.608l-2.599-1.305l-2.6-10.434l0.65-3.26l-2.6-3.261 l1.3-4.564l-1.949-1.956l0.649-1.957l4.549-0.652l-0.65-2.608h4.548l-0.65-1.957l1.3-0.652l1.95-3.913l4.549,1.304l2.599,3.26 l6.499-3.913l-0.65,1.304l4.548,1.957l0.65,3.913L472.854,507.557z" />
  <path
      id="hiroshima"
      class="chugoku"
      stroke="#FFFFFF"
      stroke-width="1.25"
      d="M440.363,537.553l-0.65,1.305l-1.95-1.305l1.95,1.957l-1.3-0.652l-1.3,3.261l-3.249-1.304v-1.957l-5.848,1.305l-1.95,2.607l-7.798,0.652l-1.3,2.609l-4.549,1.304l-1.3-1.304l-1.949,1.955l0.65-1.955l-1.95-3.913l1.3-1.304l-5.199-0.652l-5.199,4.564l0.65,1.956l-3.249-1.304l-0.65-3.913l-1.299-1.304v-4.564l-1.3-1.305l3.249-3.261l1.299-3.913l-0.649-1.304l3.899-3.261l5.199,1.305l1.299-1.956l3.249,1.304l5.199-1.304l-1.95-3.261l3.899-1.956l4.549-5.217l8.448,1.304l4.549,1.305l1.949,1.956l-1.3,4.564l2.6,3.261l-0.65,3.26L440.363,537.553z M422.167,546.031l-1.3,1.955l-1.3-1.955l3.249-1.305L422.167,546.031z M406.572,546.683l-0.65-2.608l1.949,0.652l-0.65,5.217h-1.949l1.3-1.957l-2.6-3.26L406.572,546.683z M402.673,542.77l0.65,1.305l-2.6,1.305L402.673,542.77z M415.669,548.639l-1.3-0.652h1.949L415.669,548.639z M408.521,549.291h1.3l-0.65,1.956h1.949l-1.299,1.305l-3.899-0.652l1.949-3.913h1.95L408.521,549.291z M431.265,543.422v1.957l-1.949-1.957H431.265z M429.965,544.074l-2.599,1.305l0.65-1.305H429.965z M431.915,540.162l1.3,0.652l-1.95,1.304L431.915,540.162z" />
  <path
      id="yamaguchi"
      class="chugoku"
      stroke="#FFFFFF"
      stroke-width="1.25"
      d="M381.878,526.468l1.299,3.913l-2.599,3.26l1.3,2.608h3.249l-1.299,3.261 l1.299,2.608l3.899-1.304l1.3,1.304l1.949-2.608l-0.65-2.608l2.6-1.304v4.564l1.299,1.304l0.65,3.913l3.249,1.304v3.261h-1.95 l0.65,5.217l-3.249,1.304v5.217l-2.6-3.912h-2.599l-3.25-3.913l-3.249,1.305l1.949-1.956l-2.599-1.957l-7.148,2.608l-1.95-1.956 l-1.299,1.956l-0.65-1.304l-1.299,1.304v-2.608l-1.3,3.261l-2.6,1.305l-1.299-1.305l-1.95,1.305l-0.65-3.261l-3.898-2.608 l-3.899,4.564v-4.564l-1.949-2.608l2.599-3.261l-1.95-3.912l1.95-2.609h3.899l-3.25-1.304l1.3-1.956l5.848,1.305l0.65,1.955 h4.549l3.899-1.304l-0.65-1.956l7.798-7.174l1.3,0.652L381.878,526.468z M394.225,561.681l-3.25,1.305l1.95-2.608 L394.225,561.681z M401.373,559.072l5.199-1.304l-3.249,1.304l-0.65,1.956l-2.6-1.956l-2.6,1.956l-1.299-3.26l1.949-1.305 L401.373,559.072z M364.333,536.249v-1.304l2.599,0.652L364.333,536.249z M385.777,556.464h-1.949l1.949-1.956V556.464z" />
  <path
      id="tokushima"
      class="shikoku"
      stroke="#FFFFFF"
      stroke-width="1.25"
      d="M478.702,549.943l1.299-1.305l-0.65,2.608L478.702,549.943z M472.854,549.943 l5.198-1.305v1.957l1.949,0.651l-2.599,5.869l4.549,4.564l-3.249,2.608l4.549,1.305l-12.347,6.521l-3.25,4.564l-3.899-0.651 l-1.299-2.608l1.299-2.608l-4.548-0.652l-0.65-5.217l-3.899,1.304l-8.448-3.912l1.3-5.217l5.849-3.912l4.548,1.956l5.848-4.564 l8.448,1.304L472.854,549.943z" />
  <path
      id="kagawa"
      class="shikoku"
      stroke="#FFFFFF"
      stroke-width="1.25"
      d="M447.511,557.116l-3.25-1.304l1.95-6.521l-2.6-2.608l3.899,1.956l8.447-6.521 l4.549,1.956l2.6-2.608l0.649,3.261l1.95-1.957l1.949,1.957l-0.649,1.956l5.849,3.261l-0.65,1.956l-8.448-1.304l-5.848,4.564 l-4.548-1.956L447.511,557.116z M461.157,538.857l-1.3-0.652h2.6L461.157,538.857z M469.604,535.598h1.3l-1.3,5.217l-1.3-0.652 v-1.305l-1.949,2.608v-2.608l-2.6-1.305L469.604,535.598z" />
  <path
      id="ehime"
      class="shikoku"
      stroke="#FFFFFF"
      stroke-width="1.25"
      d="M411.77,557.769l-1.949-0.652l2.599-1.956L411.77,557.769z M425.417,547.986h-2.6 l2.6-3.912l1.3,1.957L425.417,547.986z M428.666,547.335h0.65l-0.65,1.304l-1.949-0.652L428.666,547.335z M427.366,550.596 l-2.6,1.304l0.65-3.261l3.249,0.652L427.366,550.596z M410.47,599.502l-4.548-1.304v1.956h-1.3l0.65-3.261l1.949,0.652 l-3.898-3.912h1.949l-1.3-2.608h1.95l-1.95-0.652l0.65-1.304l-1.949-1.305l2.599,1.956l2.599-2.608v-1.956h-2.599l1.949-1.956 h-5.198l1.3-1.956l-1.3-0.652l1.949-3.261l-3.899-0.652l-5.198,3.913l-5.199,0.652l22.744-13.042l3.899-12.39l5.849-1.957 l-1.3-2.608l1.949-0.651l5.199,9.129l7.148-2.608l6.498,1.304l2.599-2.607l3.25,1.304l-1.3,5.217l-15.596,2.608l-4.549,5.869 l-1.95,6.521l-7.148,0.652l2.599,5.869l-3.249,1.956l-3.899,5.217l-2.599-1.956l1.949,8.477L410.47,599.502z" />
  <path
      id="kochi"
      class="shikoku"
      stroke="#FFFFFF"
      stroke-width="1.25"
      d="M446.211,562.333l8.448,3.912l3.899-1.304l0.65,5.217l4.548,0.652l-1.299,2.608 l1.299,2.608l3.899,0.651l-4.548,12.391l-7.799-10.434l-6.498-2.608l-6.498,1.304v-1.304l0.65,1.956l-7.798,2.608h3.899 l-3.899,0.652l-1.3,1.956l-0.65-1.956l-1.95,2.608l0.65,3.26l-1.299,3.913h-1.95l-2.599,5.217l-3.25,0.651v5.217l-1.949,1.957 l1.949,3.912l-2.599-2.608l-4.548,1.305l-3.25-1.957l-2.599,1.305l0.649-3.913l2.6-0.651l-0.65-1.957h-1.95l1.3-1.956 l-1.949-8.477l2.599,1.956l3.899-5.217l3.249-1.956l-2.599-5.869l7.148-0.652l1.95-6.521l4.549-5.869L446.211,562.333z  M407.221,607.327l-0.649,0.652v-1.956L407.221,607.327z" />
  <path
      id="fukuoka"
      class="kyushu"
      stroke="#FFFFFF"
      stroke-width="1.25"
      d="M349.387,588.417l-5.198-3.261l-0.65,2.608l-2.6-0.652l-3.249,2.608l0.65,1.956 h-3.249v-3.912l-1.949-1.956l1.299-4.564l5.199-3.261l0.65-3.913l-4.549,1.305l-3.899-3.913h-8.448l4.548-2.608l-2.599-1.956 l4.549-3.261l1.95,3.913l4.548-0.652l0.65-3.261l-2.599,1.305l-1.949-1.956l3.249,0.651l2.599-1.956l1.3-4.564l6.499-1.304 l0.65-1.957l3.898,0.652l-2.6,2.608h1.95l1.3-1.956l1.949,1.304l4.549-2.608l-2.6,5.217l1.95,1.305l-1.3,0.651l3.25,7.174h3.249 l-0.65,4.564l-4.548-0.652l-4.549,2.608l-2.6,3.913l0.65,3.26l-1.3,1.305l1.95,1.956L349.387,588.417z" />
  <path
      id="saga"
      class="kyushu"
      stroke="#FFFFFF"
      stroke-width="1.25"
      d="M323.394,571.462h8.448l3.899,3.913l4.549-1.305l-0.65,3.913l-5.199,3.261 l-1.299,4.564l-3.25-3.261l-3.899,3.913l1.949,6.521l-5.198-1.956l-3.899-4.564l0.65-2.608l-4.549-1.305l-1.3-4.564l1.3-1.956 l1.949,2.608l-0.65-2.608l1.3-2.608l-2.599-1.957l0.649-1.304l1.95,1.304v-3.912l0.65,1.304h2.6l0.65,3.261L323.394,571.462z" />
  <path
      id="nagasaki"
      class="kyushu"
      stroke="#FFFFFF"
      stroke-width="1.25"
      d="M306.499,520.599l1.3-0.651l1.3,1.304l-1.95,1.956l0.65,2.608l-3.899,3.913 l-0.65,2.607l1.95-0.651l-1.3,2.608l1.3-0.652l-1.95,2.608v-3.261l-1.299,1.305v-1.957l-0.65,1.957l-1.949-1.305h1.299l0.65-3.26 h1.3l-1.3-0.652l2.599-2.608l-1.949-1.304l1.299-3.261h2.6L306.499,520.599z M301.95,538.857L300,542.77l-3.899,0.652 l1.949-9.129l0.65,1.305l2.599,0.651l-0.65-1.956l0.65,2.608l1.949-0.652L301.95,538.857z M315.596,558.42l0.65,1.305 l-2.599,1.304l-2.599-2.608h1.299l-0.649-1.956l1.949-1.956l1.949,1.305l-0.649,1.304l1.299,0.652L315.596,558.42z  M290.252,591.677l-1.949,3.261l0.65-3.261l-1.949-1.956l1.949-0.651v-2.608h1.299l1.3-5.217l-1.3,7.173l3.25,0.652l-1.95,1.304 l-1.3-1.304V591.677z M287.654,592.981l-1.95-0.652v-1.304l1.3,1.304l-0.65-1.956L287.654,592.981z M284.404,593.634l0.65-1.957 l-0.65,3.913l-1.949-3.261L284.404,593.634z M275.957,596.894l1.949-0.651l0.65,1.304l1.3-2.608l2.6,6.521l-4.549-0.652v3.261 l-5.848-1.957l0.65-1.304l1.3,1.304l0.65-0.651h-1.3l1.95-1.957l-0.65-3.912L275.957,596.894z M314.296,572.114l-1.95,0.652 l1.3-1.956L314.296,572.114z M315.596,573.419l1.95,1.304l-1.95,1.305V573.419z M290.902,577.331l1.3-1.956l1.3,1.304 L290.902,577.331z M307.148,569.506l-1.95,0.652l2.6-1.956L307.148,569.506z M314.946,576.027l-1.3,1.956l1.3,4.564l4.549,1.305 l-0.65,2.608l3.899,4.564l5.198,1.956l-4.548,3.261l8.448,0.651l1.3,3.261l-1.3,4.564l-6.499,2.608l-1.299-3.912l3.249-2.608 l-0.65-1.305l-3.249-0.651l-5.199,1.304l-1.95,3.913l-5.198,3.26l2.599-3.26l-0.65-1.957l1.3,0.652l1.299-2.608l-1.949,1.305 l-0.65-4.565l-2.599-0.651l-1.949-3.913l1.949-7.173l2.599,2.608l-0.65,2.608l0.65-1.304l1.95,1.304l-1.3,4.564l7.148,1.956 l-2.6-3.912l0.65-3.261l-1.95-2.608l-1.949,1.305l-0.65-3.913h-1.95V583.2l-2.599,1.956l1.3-1.304l-1.949-1.305v-1.956v1.304 l-2.6-1.304l2.6-3.913l-1.95-0.651l0.65-1.957l3.249-0.651v1.956l3.249-0.652L314.946,576.027z M303.899,577.331l-0.65,2.608 l-3.898,1.305l3.249-1.957l-1.3-1.304l1.949-3.261h2.6l1.3-1.956l0.65,1.956L303.899,577.331z M281.805,594.938v-1.304 l1.95,1.956l-1.95,1.304V594.938z M313.646,585.809l-0.65,1.956l-0.65-1.956l1.3-1.956V585.809z" />
  <path
      id="kumamoto"
      class="kyushu"
      stroke="#FFFFFF"
      stroke-width="1.25"
      d="M323.394,609.284l3.249,0.651v6.521l-5.198,5.869l-2.6,0.651v-3.912l2.6-0.652l-3.25-0.652l2.6-6.521l-0.65-1.956H323.394z M331.192,615.805h-3.899l-1.3-2.608l4.549-2.608h4.549l-1.949,5.217H331.192z M333.792,607.327h1.299v2.608h-1.949L333.792,607.327z M342.889,628.847l-3.249-3.912l-5.848,2.608l-3.25-2.608l8.448-9.782l-1.3-3.912l1.3,0.652l-0.65-1.305l3.899-3.261h-7.148l5.199-3.912l0.649-3.261l-5.198-5.217l-0.65-3.261h3.249l-0.65-1.956l3.249-2.608l2.6,0.652l0.65-2.608l5.198,3.261l5.199,3.26l1.3-1.956l-0.65-3.912h3.899l4.548,8.478l-0.65,3.912l2.6,2.608h-2.6l-5.848,9.129l-3.25,1.305v4.564l3.25,4.564l-2.6,3.261l1.95,3.913L342.889,628.847z" />
  <path
      id="oita"
      class="kyushu"
      stroke="#FFFFFF"
      stroke-width="1.25"
      d="M349.387,588.417l1.95-3.261l-1.95-1.956l1.3-1.305l-0.65-3.26l2.6-3.913 l4.549-2.608l4.548,0.652l0.65-4.564l8.448,2.608l3.249-4.565l5.849,2.608l1.3,3.913l-1.95,5.217l-1.949-0.652v1.956 l-5.199,1.305l0.649,2.608l2.6,1.304l10.397-0.651l-3.898,5.868h3.898l-1.949,1.305l1.949,1.304l3.25-1.304l0.65,1.956h-3.25 l-1.3,2.608l6.499,2.608h-3.899l1.3,1.304l-2.6,1.957l1.95,0.651l-3.899,0.652v2.608h-1.3v-3.261l-2.599-0.651l-1.95,2.608 h-5.199l-3.249-3.261l-3.25,0.652l-1.299-0.652l-2.6-2.608l0.65-3.912l-4.548-8.478h-3.899l0.65,3.912l-1.3,1.956 L349.387,588.417z" />
  <path
      id="miyazaki"
      class="kyushu"
      stroke="#FFFFFF"
      stroke-width="1.25"
      d="M365.633,600.807l1.299,0.652l3.25-0.652l3.249,3.261h5.199l1.95-2.608l2.599,0.651v3.261h1.3l-7.148,6.521l-0.65,2.608l1.949,0.651l-2.599,0.652l-0.65,1.305l1.3,0.651l-3.899,5.217l-3.898,11.086l-1.3,14.998l-3.249,3.261l-1.3,7.825l-3.249-1.305l-3.249-3.26l1.3-1.957v-4.564l-4.549-0.652l-1.949-5.868l-3.25-1.305l0.65-3.261l-3.249-3.26l-3.25-4.565l0.65-1.304l13.646-1.304l-1.95-3.913l2.6-3.261l-3.25-4.564v-4.564l3.25-1.305l5.848-9.129H365.633z" />
  <path
      id="kagoshima"
      class="kyushu"
      stroke="#FFFFFF"
      stroke-width="1.25"
      d="M256.462,813.391l-2.6,0.652l-0.649-2.608l6.498-1.305L256.462,813.391z  M267.509,798.393v-5.217h3.25l-0.65,2.608l2.599,2.608l-0.65,1.956l-3.249,1.956l-1.95-2.608L267.509,798.393z M307.798,780.134 l-1.95,0.652l-0.65-1.305l3.899-2.608L307.798,780.134z M295.452,774.917l-8.448,5.217l2.599,1.956l-3.249,1.956l-1.95-0.651 l1.3,2.608l-3.899-3.261l1.3-1.956l-5.849-1.305h5.199l0.65-1.304l-2.6-0.652l9.098-3.912l1.299,1.304l1.3-2.608l3.25-0.652 l-1.3,2.608l1.3-1.304l0.65,1.304l1.299-4.564l1.3,3.913L295.452,774.917z M282.455,786.654l-1.3-1.304l-1.3,1.304l-1.3-4.564 l3.25,0.652l-0.65,1.956l3.899,1.305l-1.949,1.304l0.65-1.304L282.455,786.654z M320.795,693.404l1.949,1.304l-1.949,0.652 V693.404z M327.293,700.577l-0.65-3.912l4.549-2.608l5.848,3.912l-0.65,3.261l-3.898,2.608l-3.899-0.652L327.293,700.577z  M347.438,696.013v3.261l-3.249,0.652l-0.65-4.565l2.6-1.956l0.65-6.521l4.548-6.521l0.65,5.869L347.438,696.013z  M330.542,624.935l3.25,2.608l5.848-2.608l3.249,3.912l-0.65,1.304l3.25,4.565l3.249,3.26l-0.65,3.261l3.25,1.305l1.949,5.868 l4.549,0.652v4.564l-1.3,1.957l-1.95-0.652l-3.249,3.912l3.249,1.957l-1.3,2.608l1.95-0.652l-4.549,1.956l-1.95,3.261 l-10.397,5.217v-3.261l3.249-1.956l2.6-7.825l-3.899-5.869l0.649-3.261l-3.899-1.956l3.25-1.304l0.649,2.608l1.95,0.651 l2.6-3.912l-4.549-3.913l-2.599,1.305l-3.899,8.478l1.3,7.173l3.249,1.956l-1.3,3.261l-3.898,0.652l-1.95-3.913h-8.448 l0.65-2.608l-1.95-0.652l1.3-1.304l-3.249-2.608h5.848l2.599-6.521l-1.949-5.868l-3.249-2.608l1.949-4.565l-1.299-7.824 l1.949-1.305l2.599,1.305L330.542,624.935z M325.993,620.369l1.949-0.651l-0.649,1.304L325.993,620.369z M323.394,627.543 l-1.949-3.913l3.249-1.304l0.65,2.608L323.394,627.543z M308.448,640.584l1.299-1.956l0.65,1.305l-3.249,5.217l-1.3-0.652 L308.448,640.584z M313.646,637.976l-1.949-1.956h3.249L313.646,637.976z M302.6,724.054l-1.95,2.608v-1.956L302.6,724.054z  M306.499,716.881l1.3-0.652l1.3,2.608L306.499,716.881z" />
  <path
      id="okinawa"
      class="kyushu"
      stroke="#FFFFFF"
      stroke-width="1.25"
      stroke-linejoin="round"
      d="M38.993,902.075l1.3,0.652l-1.3,0.652l-2.6-0.652L38.993,902.075z M67.584,909.9l4.549,1.305l-2.6,3.912l-7.798-3.26l1.95-1.305l1.3,1.956l1.299-4.564L67.584,909.9z M118.921,900.119l-0.65-1.956l1.3,0.652L118.921,900.119z M122.17,904.684l-1.3-1.956h1.3l-1.3-1.304l1.95-1.957l-0.65-3.26l1.95,5.217l4.548,3.912L122.17,904.684z M182.604,845.995l-0.65,3.261l-3.249-3.261l2.599-1.304L182.604,845.995z M340.511,882.513l-0.65-1.956h1.3L340.511,882.513z M217.695,836.214v-1.304l2.599,1.304H217.695z M226.792,838.17l0.65,1.305l-1.3-0.652L226.792,838.17z M83.831,907.292l2.6-3.26l1.299,0.651l-3.899,4.565l-0.65,3.912l-3.899,0.652l-1.3-1.305l1.949-1.956l-2.599-1.956l5.199,0.652L83.831,907.292z M222.893,844.039l2.599-1.956l-3.249-1.305l-0.65-4.564l4.549,1.305v2.608l4.549-0.652l-0.65-1.305l5.848-7.173l1.3,3.261v2.608l-2.6,3.912h-3.249l-0.649,2.608h-3.899l0.65,1.305l-3.899,2.608h-4.549l3.249,5.869l-3.249-1.957l-3.249,5.217l2.6,1.305l-6.499,3.26v-5.217l4.549-3.912l-1.3-5.217l3.25,0.652L222.893,844.039z" />
</svg>
